HIERARCHY
ROOT HipCenter
{
    OFFSET 0.0 0.0 -0.0
    CHANNELS 6 Xposition Yposition Zposition Zrotation Xrotation Yrotation
    JOINT Spine
    {
        OFFSET 0.0 0.12092713266611099 0.0
        CHANNELS 3 Zrotation Xrotation Yrotation
        JOINT ShoulderCenter
        {
            OFFSET 0.0 0.33453699946403503 0.0
            CHANNELS 3 Zrotation Xrotation Yrotation
            JOINT LeftShoulder
            {
                OFFSET 0.19064515829086304 0.0 0.0
                CHANNELS 3 Zrotation Xrotation Yrotation
                JOINT LeftElbow
                {
                    OFFSET 0.2975097596645355 0.0 0.0
                    CHANNELS 3 Zrotation Xrotation Yrotation
                    JOINT LeftWrist
                    {
                        OFFSET 0.29605287313461304 0.0 0.0
                        CHANNELS 3 Zrotation Xrotation Yrotation
                        JOINT LeftHand
                        {
                            OFFSET 0.04401935264468193 0.0 0.0
                            CHANNELS 3 Zrotation Xrotation Yrotation
                            End Site
                            {
                                OFFSET 0.01760774292051792 0.0 0.0
                            }
                        }
                    }
                }
            }
            JOINT RightShoulder
            {
                OFFSET -0.19064515829086304 0.0 0.0
                CHANNELS 3 Zrotation Xrotation Yrotation
                JOINT RightElbow
                {
                    OFFSET -0.2975097596645355 0.0 0.0
                    CHANNELS 3 Zrotation Xrotation Yrotation
                    JOINT RightWrist
                    {
                        OFFSET -0.29605287313461304 0.0 0.0
                        CHANNELS 3 Zrotation Xrotation Yrotation
                        JOINT RightHand
                        {
                            OFFSET -0.04401935264468193 0.0 0.0
                            CHANNELS 3 Zrotation Xrotation Yrotation
                            End Site
                            {
                                OFFSET -0.01760774292051792 0.0 0.0
                            }
                        }
                    }
                }
            }
            End Site
            {
                OFFSET 0.0 0.13381479680538177 0.0
            }
        }
    }
    JOINT LeftHip
    {
        OFFSET 0.13973650336265564 0.0 0.0
        CHANNELS 3 Zrotation Xrotation Yrotation
        JOINT LeftKnee
        {
            OFFSET 0.0 -0.4064757227897644 0.0
            CHANNELS 3 Zrotation Xrotation Yrotation
            JOINT LeftAnkle
            {
                OFFSET 0.0 -0.44777125120162964 0.0
                CHANNELS 3 Zrotation Xrotation Yrotation
                JOINT LeftFoot
                {
                    OFFSET 0.0 -0.10065168142318726 0.0
                    CHANNELS 3 Zrotation Xrotation Yrotation
                    End Site
                    {
                        OFFSET 0.0 0.0 0.0402606800198555
                    }
                }
            }
        }
    }
    JOINT RightHip
    {
        OFFSET -0.13973650336265564 0.0 0.0
        CHANNELS 3 Zrotation Xrotation Yrotation
        JOINT RightKnee
        {
            OFFSET 0.0 -0.4064757227897644 0.0
            CHANNELS 3 Zrotation Xrotation Yrotation
            JOINT RightAnkle
            {
                OFFSET 0.0 -0.44777125120162964 0.0
                CHANNELS 3 Zrotation Xrotation Yrotation
                JOINT RightFoot
                {
                    OFFSET 0.0 -0.10065168142318726 0.0
                    CHANNELS 3 Zrotation Xrotation Yrotation
                    End Site
                    {
                        OFFSET 0.0 0.0 0.0402606800198555
                    }
                }
            }
        }
    }
}
MOTION
Frames: 5
Frame Time: 0.03333333333333333
0.3659999966621399 0.17599999904632568 0.5199999809265137 2.4895583097196226 67.47104128981333 -10.813690037029689 -3.938423352827205 9.198425038164467 0.3229854974662899 4.5338349124066833e-07 -6.103207180969139e-07 9.153072747414233 145.14150105035338 60.82887598150762 131.74577464544697 1.1337764450437247e-05 1.7122507536216342e-05 0.4734232815785915 -3.021332768720982e-06 56.174129303268494 5.702718545956494 -3.1805546814635164e-15 -6.361109362927033e-15 -1.7655625192200634e-31 -157.8644023492634 58.76097607754502 -109.2618270858577 1.193129315239971e-06 8.154513600679102e-06 -6.693154149200239 179.99999380181123 -76.9233527909284 156.4428021527469 0.0 0.0 -3.180554681463516e-15 25.46252610507321 -55.21040595633855 55.26937492433349 -4.864340300357763 -3.7180486841688873 8.065899840862858 -94.177853882288 -53.38622032312685 -24.01055795925441 3.1805546814635168e-15 0.0 0.0 10.83533382021921 -57.18785053698006 -4.680520337204797 1.2437496325751811 -4.158017635902449 -4.683271097536121 6.830511378715531 -54.99235925016414 -35.91744477805761 -7.951386703658794e-16 6.361109362927035e-15 7.951386703658794e-16
0.3779999911785126 0.32899999618530273 0.5659999847412109 146.3099744452677 86.56108682740293 -151.4622273422688 -1.724951973424836 5.596001679292584 -0.030317207122420142 5.232586441483639e-07 -4.14347099601356e-07 6.756744638207906 -78.46467353390186 68.94394991450258 -4.816182177999028 1.6741795818523853e-08 4.7799320618690904e-06 5.633937039155851 -179.99999710060376 71.04683922351238 -143.69832192689023 3.180554681463516e-15 -3.180554681463516e-15 3.180554681463516e-15 -113.38951409650296 58.630673047629465 -154.11450199506334 2.2621116643832776e-06 5.649136655285068e-06 -11.604911917860436 -179.99999370769854 -77.05766501525345 144.66328122657808 7.156248033292914e-15 -1.5902773407317584e-15 9.931289170612858e-32 68.19913138958765 -78.6233483033243 121.98645844839069 15.01394832484807 6.651870009874968 -15.56794326172913 -84.17550321609832 -55.37343703673208 -14.68228926414417 5.29668755766019e-31 6.361109362927033e-15 -9.541664044390549e-15 -24.257513067006254 -84.61730851766599 -64.62585703468069 -13.153448657641718 15.557081517163473 24.847041369815127 11.060488372383615 -61.74983623655658 -41.78698594423245 9.93923337957349e-16 -2.5000641141299724e-32 -2.882377680076312e-15
0.3880000114440918 0.4269999861717224 0.6470000147819519 178.91905751476676 64.06519049278847 176.63188086209746 1.0092211371967705 3.0913513085517095 -0.12937486454825486 -1.3799181036745524e-07 4.348198278305058e-06 8.802899554519868 -65.81918215211391 11.637305288032913 -45.93013047476457 4.649203262449961e-06 5.364168281214345e-07 5.581706852256375 179.99999419739498 21.683007116293673 -141.48905355700123 -2.3854160110976376e-15 1.5902773407317584e-15 1.5902773407317584e-15 -91.54434937190386 27.682815611195867 160.79660620634235 -1.3258626695040353e-06 9.232072021026273e-06 -22.381869759421217 -179.99999342443064 -47.87776861248726 123.34371063951136 0.0 3.1805546814635168e-15 0.0 153.86855250735488 -69.77562030284264 -150.14663279728367 54.57687897573525 25.853902005231294 -109.885927337838 76.59134521725669 -47.62902674617537 147.59198341064766 1.987846675914698e-16 1.987846675914698e-16 -3.3793393490549868e-15 -146.40617902642086 -76.28507616705642 165.65738720019266 -48.30341755058037 41.3934859803212 101.63971886321791 -70.95348860289096 -38.817427710120825 -131.44938663696192 2.2069531490250793e-32 -1.5902773407317584e-15 1.5902773407317584e-15
0.382999986410141 0.460999995470047 0.7210000157356262 -174.02567480561024 44.16999422662917 170.28126885415924 5.865274179629711 -3.6472812879801286 0.09791342329843676 2.3540747234760824e-07 -3.849070428487261e-06 11.468462276840544 -49.021214045472966 -4.234356092671292 -79.41274256344052 -1.7996227226942531e-06 1.3056704693683332e-05 8.393999469051906 -179.99999922585238 25.51289978045896 -119.87910949596494 -4.373262687012335e-15 0.0 0.0 -105.0248762689063 18.22414145926695 129.09286643724926 2.236238533211797e-06 2.066988047427409e-06 -39.46579651307093 179.99999979204762 -40.465266417680546 113.7798059611572 -1.5902773407317588e-15 -4.4139062980501586e-32 3.1805546814635176e-15 159.28191497519583 -61.315283216285025 -143.5974219785324 94.99921547102304 29.525355601618017 -153.28627921032765 85.20158654384929 -32.71536927616052 140.9169178168443 -1.5902773407317582e-15 -3.1805546814635164e-15 7.95138670365879e-16 -145.42715203137158 -75.03720020123781 159.62974239891923 -89.13359175660865 46.681669849100004 145.55188814140206 -70.43016148519565 -32.11266329985438 -105.71231672464958 3.180554681463516e-15 1.3241718894150476e-31 4.7708320221952736e-15
0.382999986410141 0.40799999237060547 0.7940000295639038 -171.71419399639234 30.78048961616402 173.80449967274487 7.9374308636061395 -8.80698586353818 -0.8187616733755775 1.3523435297242258e-07 -8.055327671411656e-07 12.286457273771216 8.629240549404214 -27.503965368025597 -78.17737417126503 -4.60090981992645e-06 3.273312925522439e-06 4.1439301190696085 179.99998289703953 81.51596248569786 -129.3593695932311 -2.435112177995506e-15 3.1805546814635176e-15 6.758794018889306e-32 -114.93589969084334 35.229684215548026 96.91052300821563 2.329765812262818e-06 5.469321743467851e-07 -41.31837441494292 -1.6746082000947607e-06 -23.930330668711214 -96.7519612805159 0.0 0.0 0.0 79.80636924785206 -82.83555660402837 106.12828110197327 105.46530927479071 59.78926551823562 -163.373719269345 76.20304944081653 -44.90848963582793 83.86678097600877 -8.827812596100317e-32 -6.3611093629270335e-15 -1.5902773407317584e-15 -36.303121341271755 -73.23190660595137 -85.50484614102514 -94.57908864230835 52.72409963777522 163.93862843275198 -77.08424022757231 -22.246561717946864 -87.29654144750708 0.0 0.0 0.0
